<mxfile host="app.diagrams.net" agent="Mozilla/5.0 (Windows NT 10.0; Win64; x64) AppleWebKit/537.36 (KHTML, like Gecko) Chrome/128.0.0.0 Safari/537.36" version="24.7.10">
  <diagram name="Página-1" id="g8zWgq3LxLhpQ16WP2sR">
    <mxGraphModel dx="1050" dy="563" grid="1" gridSize="10" guides="1" tooltips="1" connect="1" arrows="1" fold="1" page="1" pageScale="1" pageWidth="827" pageHeight="1169" math="0" shadow="0">
      <root>
        <mxCell id="0" />
        <mxCell id="1" parent="0" />
        <mxCell id="Hz02QzPRz-9JN_dZOkz5-31" value="DIAGRAMA DE CLASSE DE FLUXO" style="swimlane;startSize=20;horizontal=1;containerType=tree;newEdgeStyle={&quot;edgeStyle&quot;:&quot;elbowEdgeStyle&quot;,&quot;startArrow&quot;:&quot;none&quot;,&quot;endArrow&quot;:&quot;none&quot;};labelBackgroundColor=none;rounded=1;comic=0;enumerate=0;backgroundOutline=0;metaEdit=0;fixDash=0;" parent="1" vertex="1">
          <mxGeometry x="129" width="570" height="520" as="geometry" />
        </mxCell>
        <mxCell id="Hz02QzPRz-9JN_dZOkz5-32" value="" style="edgeStyle=elbowEdgeStyle;elbow=vertical;sourcePerimeterSpacing=0;targetPerimeterSpacing=0;startArrow=none;endArrow=none;rounded=1;curved=0;labelBackgroundColor=none;fontColor=default;comic=0;enumerate=0;backgroundOutline=0;metaEdit=0;fixDash=0;" parent="Hz02QzPRz-9JN_dZOkz5-31" source="Hz02QzPRz-9JN_dZOkz5-86" target="Hz02QzPRz-9JN_dZOkz5-35" edge="1">
          <mxGeometry relative="1" as="geometry">
            <Array as="points">
              <mxPoint x="60" y="80" />
            </Array>
          </mxGeometry>
        </mxCell>
        <mxCell id="Hz02QzPRz-9JN_dZOkz5-33" value="" style="edgeStyle=elbowEdgeStyle;elbow=vertical;sourcePerimeterSpacing=0;targetPerimeterSpacing=0;startArrow=none;endArrow=none;rounded=1;curved=0;labelBackgroundColor=none;fontColor=default;comic=0;enumerate=0;backgroundOutline=0;metaEdit=0;fixDash=0;" parent="Hz02QzPRz-9JN_dZOkz5-31" source="Hz02QzPRz-9JN_dZOkz5-88" target="Hz02QzPRz-9JN_dZOkz5-36" edge="1">
          <mxGeometry relative="1" as="geometry">
            <Array as="points">
              <mxPoint x="180" y="120" />
            </Array>
          </mxGeometry>
        </mxCell>
        <UserObject label="LOGIN" treeRoot="1" id="Hz02QzPRz-9JN_dZOkz5-34">
          <mxCell style="whiteSpace=wrap;html=1;align=center;treeFolding=1;treeMoving=1;newEdgeStyle={&quot;edgeStyle&quot;:&quot;elbowEdgeStyle&quot;,&quot;startArrow&quot;:&quot;none&quot;,&quot;endArrow&quot;:&quot;none&quot;};labelBackgroundColor=none;rounded=1;comic=0;enumerate=0;backgroundOutline=0;metaEdit=0;fixDash=0;" parent="Hz02QzPRz-9JN_dZOkz5-31" vertex="1">
            <mxGeometry x="120" y="30" width="120" height="60" as="geometry" />
          </mxCell>
        </UserObject>
        <mxCell id="Hz02QzPRz-9JN_dZOkz5-60" style="edgeStyle=elbowEdgeStyle;rounded=1;orthogonalLoop=1;jettySize=auto;html=1;startArrow=none;endArrow=none;exitX=1;exitY=0.5;exitDx=0;exitDy=0;entryX=0.5;entryY=1;entryDx=0;entryDy=0;curved=0;comic=0;enumerate=0;backgroundOutline=0;metaEdit=0;fixDash=0;" parent="Hz02QzPRz-9JN_dZOkz5-31" source="Hz02QzPRz-9JN_dZOkz5-90" target="Hz02QzPRz-9JN_dZOkz5-34" edge="1">
          <mxGeometry relative="1" as="geometry" />
        </mxCell>
        <mxCell id="Hz02QzPRz-9JN_dZOkz5-35" value="CADASTRO" style="whiteSpace=wrap;html=1;align=center;verticalAlign=middle;treeFolding=1;treeMoving=1;newEdgeStyle={&quot;edgeStyle&quot;:&quot;elbowEdgeStyle&quot;,&quot;startArrow&quot;:&quot;none&quot;,&quot;endArrow&quot;:&quot;none&quot;};labelBackgroundColor=none;rounded=1;comic=0;enumerate=0;backgroundOutline=0;metaEdit=0;fixDash=0;" parent="Hz02QzPRz-9JN_dZOkz5-31" vertex="1">
          <mxGeometry x="10" y="110" width="80" height="60" as="geometry" />
        </mxCell>
        <mxCell id="Hz02QzPRz-9JN_dZOkz5-36" value="TELA DO USUÁRIO" style="whiteSpace=wrap;html=1;align=center;verticalAlign=middle;treeFolding=1;treeMoving=1;newEdgeStyle={&quot;edgeStyle&quot;:&quot;elbowEdgeStyle&quot;,&quot;startArrow&quot;:&quot;none&quot;,&quot;endArrow&quot;:&quot;none&quot;};labelBackgroundColor=none;rounded=1;comic=0;enumerate=0;backgroundOutline=0;metaEdit=0;fixDash=0;" parent="Hz02QzPRz-9JN_dZOkz5-31" vertex="1">
          <mxGeometry x="120" y="190" width="100" height="60" as="geometry" />
        </mxCell>
        <mxCell id="Hz02QzPRz-9JN_dZOkz5-39" value="" style="edgeStyle=elbowEdgeStyle;elbow=vertical;sourcePerimeterSpacing=0;targetPerimeterSpacing=0;startArrow=none;endArrow=none;rounded=1;curved=0;labelBackgroundColor=none;fontColor=default;comic=0;enumerate=0;backgroundOutline=0;metaEdit=0;fixDash=0;" parent="Hz02QzPRz-9JN_dZOkz5-31" source="Hz02QzPRz-9JN_dZOkz5-72" target="Hz02QzPRz-9JN_dZOkz5-40" edge="1">
          <mxGeometry relative="1" as="geometry">
            <mxPoint x="400" y="100" as="sourcePoint" />
          </mxGeometry>
        </mxCell>
        <mxCell id="Hz02QzPRz-9JN_dZOkz5-40" value="CADASTRAR NOVA TAREFA" style="whiteSpace=wrap;html=1;align=center;verticalAlign=middle;treeFolding=1;treeMoving=1;newEdgeStyle={&quot;edgeStyle&quot;:&quot;elbowEdgeStyle&quot;,&quot;startArrow&quot;:&quot;none&quot;,&quot;endArrow&quot;:&quot;none&quot;};labelBackgroundColor=none;rounded=1;comic=0;enumerate=0;backgroundOutline=0;metaEdit=0;fixDash=0;" parent="Hz02QzPRz-9JN_dZOkz5-31" vertex="1">
          <mxGeometry x="411" y="190" width="100" height="60" as="geometry" />
        </mxCell>
        <mxCell id="Hz02QzPRz-9JN_dZOkz5-41" value="" style="edgeStyle=elbowEdgeStyle;elbow=vertical;sourcePerimeterSpacing=0;targetPerimeterSpacing=0;startArrow=none;endArrow=none;rounded=1;curved=0;labelBackgroundColor=none;fontColor=default;comic=0;enumerate=0;backgroundOutline=0;metaEdit=0;fixDash=0;" parent="Hz02QzPRz-9JN_dZOkz5-31" source="Hz02QzPRz-9JN_dZOkz5-78" target="Hz02QzPRz-9JN_dZOkz5-42" edge="1">
          <mxGeometry relative="1" as="geometry">
            <mxPoint x="470" y="200" as="sourcePoint" />
          </mxGeometry>
        </mxCell>
        <mxCell id="Hz02QzPRz-9JN_dZOkz5-42" value="ALTERAR TAREFA" style="whiteSpace=wrap;html=1;align=center;verticalAlign=middle;treeFolding=1;treeMoving=1;newEdgeStyle={&quot;edgeStyle&quot;:&quot;elbowEdgeStyle&quot;,&quot;startArrow&quot;:&quot;none&quot;,&quot;endArrow&quot;:&quot;none&quot;};labelBackgroundColor=none;rounded=1;comic=0;enumerate=0;backgroundOutline=0;metaEdit=0;fixDash=0;" parent="Hz02QzPRz-9JN_dZOkz5-31" vertex="1">
          <mxGeometry x="411" y="290" width="100" height="60" as="geometry" />
        </mxCell>
        <mxCell id="Hz02QzPRz-9JN_dZOkz5-43" value="" style="edgeStyle=elbowEdgeStyle;elbow=vertical;sourcePerimeterSpacing=0;targetPerimeterSpacing=0;startArrow=none;endArrow=none;rounded=1;curved=0;labelBackgroundColor=none;fontColor=default;comic=0;enumerate=0;backgroundOutline=0;metaEdit=0;fixDash=0;" parent="Hz02QzPRz-9JN_dZOkz5-31" source="Hz02QzPRz-9JN_dZOkz5-42" target="Hz02QzPRz-9JN_dZOkz5-44" edge="1">
          <mxGeometry relative="1" as="geometry">
            <mxPoint x="470" y="300" as="sourcePoint" />
          </mxGeometry>
        </mxCell>
        <mxCell id="Hz02QzPRz-9JN_dZOkz5-44" value="EXCLUIR TAREFA" style="whiteSpace=wrap;html=1;align=center;verticalAlign=middle;treeFolding=1;treeMoving=1;newEdgeStyle={&quot;edgeStyle&quot;:&quot;elbowEdgeStyle&quot;,&quot;startArrow&quot;:&quot;none&quot;,&quot;endArrow&quot;:&quot;none&quot;};labelBackgroundColor=none;rounded=1;comic=0;enumerate=0;backgroundOutline=0;metaEdit=0;fixDash=0;" parent="Hz02QzPRz-9JN_dZOkz5-31" vertex="1">
          <mxGeometry x="411" y="390" width="100" height="60" as="geometry" />
        </mxCell>
        <mxCell id="Hz02QzPRz-9JN_dZOkz5-45" value="" style="edgeStyle=elbowEdgeStyle;elbow=vertical;sourcePerimeterSpacing=0;targetPerimeterSpacing=0;startArrow=none;endArrow=none;rounded=1;curved=0;labelBackgroundColor=none;fontColor=default;comic=0;enumerate=0;backgroundOutline=0;metaEdit=0;fixDash=0;" parent="Hz02QzPRz-9JN_dZOkz5-31" source="Hz02QzPRz-9JN_dZOkz5-81" target="Hz02QzPRz-9JN_dZOkz5-46" edge="1">
          <mxGeometry relative="1" as="geometry">
            <mxPoint x="470" y="400" as="sourcePoint" />
          </mxGeometry>
        </mxCell>
        <mxCell id="Hz02QzPRz-9JN_dZOkz5-46" value="MARCAR TAREFA" style="whiteSpace=wrap;html=1;align=center;verticalAlign=middle;treeFolding=1;treeMoving=1;newEdgeStyle={&quot;edgeStyle&quot;:&quot;elbowEdgeStyle&quot;,&quot;startArrow&quot;:&quot;none&quot;,&quot;endArrow&quot;:&quot;none&quot;};labelBackgroundColor=none;rounded=1;comic=0;enumerate=0;backgroundOutline=0;metaEdit=0;fixDash=0;" parent="Hz02QzPRz-9JN_dZOkz5-31" vertex="1">
          <mxGeometry x="260" y="390" width="100" height="60" as="geometry" />
        </mxCell>
        <mxCell id="Hz02QzPRz-9JN_dZOkz5-47" value="" style="edgeStyle=elbowEdgeStyle;elbow=vertical;sourcePerimeterSpacing=0;targetPerimeterSpacing=0;startArrow=none;endArrow=none;rounded=1;curved=0;labelBackgroundColor=none;fontColor=default;comic=0;enumerate=0;backgroundOutline=0;metaEdit=0;fixDash=0;" parent="Hz02QzPRz-9JN_dZOkz5-31" source="Hz02QzPRz-9JN_dZOkz5-84" target="Hz02QzPRz-9JN_dZOkz5-48" edge="1">
          <mxGeometry relative="1" as="geometry">
            <mxPoint x="470" y="500" as="sourcePoint" />
          </mxGeometry>
        </mxCell>
        <mxCell id="Hz02QzPRz-9JN_dZOkz5-48" value="SAIR" style="whiteSpace=wrap;html=1;align=center;verticalAlign=middle;treeFolding=1;treeMoving=1;newEdgeStyle={&quot;edgeStyle&quot;:&quot;elbowEdgeStyle&quot;,&quot;startArrow&quot;:&quot;none&quot;,&quot;endArrow&quot;:&quot;none&quot;};labelBackgroundColor=none;rounded=1;comic=0;enumerate=0;backgroundOutline=0;metaEdit=0;fixDash=0;" parent="Hz02QzPRz-9JN_dZOkz5-31" vertex="1">
          <mxGeometry x="91" y="390" width="100" height="60" as="geometry" />
        </mxCell>
        <mxCell id="Hz02QzPRz-9JN_dZOkz5-58" value="" style="edgeStyle=elbowEdgeStyle;elbow=vertical;sourcePerimeterSpacing=0;targetPerimeterSpacing=0;startArrow=none;endArrow=none;rounded=1;curved=0;labelBackgroundColor=none;fontColor=default;comic=0;enumerate=0;backgroundOutline=0;metaEdit=0;fixDash=0;" parent="Hz02QzPRz-9JN_dZOkz5-31" source="Hz02QzPRz-9JN_dZOkz5-40" target="Hz02QzPRz-9JN_dZOkz5-59" edge="1">
          <mxGeometry relative="1" as="geometry">
            <mxPoint x="510" y="160" as="sourcePoint" />
          </mxGeometry>
        </mxCell>
        <mxCell id="Hz02QzPRz-9JN_dZOkz5-59" value="PROCURAR TAREFA" style="whiteSpace=wrap;html=1;align=center;verticalAlign=middle;treeFolding=1;treeMoving=1;newEdgeStyle={&quot;edgeStyle&quot;:&quot;elbowEdgeStyle&quot;,&quot;startArrow&quot;:&quot;none&quot;,&quot;endArrow&quot;:&quot;none&quot;};labelBackgroundColor=none;rounded=1;comic=0;enumerate=0;backgroundOutline=0;metaEdit=0;fixDash=0;" parent="Hz02QzPRz-9JN_dZOkz5-31" vertex="1">
          <mxGeometry x="260" y="190" width="100" height="60" as="geometry" />
        </mxCell>
        <mxCell id="Hz02QzPRz-9JN_dZOkz5-61" value="" style="edgeStyle=elbowEdgeStyle;elbow=vertical;sourcePerimeterSpacing=0;targetPerimeterSpacing=0;startArrow=none;endArrow=none;rounded=1;curved=0;labelBackgroundColor=none;fontColor=default;comic=0;enumerate=0;backgroundOutline=0;metaEdit=0;fixDash=0;" parent="Hz02QzPRz-9JN_dZOkz5-31" source="Hz02QzPRz-9JN_dZOkz5-68" target="Hz02QzPRz-9JN_dZOkz5-62" edge="1">
          <mxGeometry relative="1" as="geometry">
            <mxPoint x="301" y="190" as="sourcePoint" />
            <mxPoint x="211" y="140" as="targetPoint" />
            <Array as="points">
              <mxPoint x="301" y="190" />
            </Array>
          </mxGeometry>
        </mxCell>
        <mxCell id="Hz02QzPRz-9JN_dZOkz5-62" value="NÃO TEM&amp;nbsp;" style="whiteSpace=wrap;html=1;align=center;verticalAlign=middle;treeFolding=1;treeMoving=1;newEdgeStyle={&quot;edgeStyle&quot;:&quot;elbowEdgeStyle&quot;,&quot;startArrow&quot;:&quot;none&quot;,&quot;endArrow&quot;:&quot;none&quot;};labelBackgroundColor=none;rounded=1;comic=0;enumerate=0;backgroundOutline=0;metaEdit=0;fixDash=0;" parent="Hz02QzPRz-9JN_dZOkz5-31" vertex="1">
          <mxGeometry x="260" y="90" width="100" height="60" as="geometry" />
        </mxCell>
        <mxCell id="Hz02QzPRz-9JN_dZOkz5-63" style="edgeStyle=elbowEdgeStyle;rounded=0;orthogonalLoop=1;jettySize=auto;html=1;startArrow=none;endArrow=none;" parent="Hz02QzPRz-9JN_dZOkz5-31" source="Hz02QzPRz-9JN_dZOkz5-74" target="Hz02QzPRz-9JN_dZOkz5-40" edge="1">
          <mxGeometry relative="1" as="geometry">
            <Array as="points">
              <mxPoint x="471" y="120" />
            </Array>
          </mxGeometry>
        </mxCell>
        <mxCell id="Hz02QzPRz-9JN_dZOkz5-65" value="" style="edgeStyle=elbowEdgeStyle;elbow=vertical;sourcePerimeterSpacing=0;targetPerimeterSpacing=0;startArrow=none;endArrow=none;rounded=1;curved=0;labelBackgroundColor=none;fontColor=default;comic=0;enumerate=0;backgroundOutline=0;metaEdit=0;fixDash=0;exitX=0.5;exitY=1;exitDx=0;exitDy=0;" parent="Hz02QzPRz-9JN_dZOkz5-31" source="Hz02QzPRz-9JN_dZOkz5-59" target="Hz02QzPRz-9JN_dZOkz5-66" edge="1">
          <mxGeometry relative="1" as="geometry">
            <mxPoint x="540" y="220" as="sourcePoint" />
          </mxGeometry>
        </mxCell>
        <mxCell id="Hz02QzPRz-9JN_dZOkz5-67" style="edgeStyle=elbowEdgeStyle;rounded=0;orthogonalLoop=1;jettySize=auto;html=1;startArrow=none;endArrow=none;exitX=1;exitY=0.5;exitDx=0;exitDy=0;entryX=0;entryY=0.5;entryDx=0;entryDy=0;" parent="Hz02QzPRz-9JN_dZOkz5-31" source="Hz02QzPRz-9JN_dZOkz5-76" target="Hz02QzPRz-9JN_dZOkz5-42" edge="1">
          <mxGeometry relative="1" as="geometry" />
        </mxCell>
        <mxCell id="Hz02QzPRz-9JN_dZOkz5-66" value="ACHOU A TAREFA" style="whiteSpace=wrap;html=1;align=center;verticalAlign=middle;treeFolding=1;treeMoving=1;newEdgeStyle={&quot;edgeStyle&quot;:&quot;elbowEdgeStyle&quot;,&quot;startArrow&quot;:&quot;none&quot;,&quot;endArrow&quot;:&quot;none&quot;};labelBackgroundColor=none;rounded=1;comic=0;enumerate=0;backgroundOutline=0;metaEdit=0;fixDash=0;" parent="Hz02QzPRz-9JN_dZOkz5-31" vertex="1">
          <mxGeometry x="260" y="290" width="100" height="60" as="geometry" />
        </mxCell>
        <mxCell id="Hz02QzPRz-9JN_dZOkz5-68" value="" style="shape=singleArrow;direction=north;whiteSpace=wrap;html=1;" parent="Hz02QzPRz-9JN_dZOkz5-31" vertex="1">
          <mxGeometry x="300" y="160" width="20" height="30" as="geometry" />
        </mxCell>
        <mxCell id="Hz02QzPRz-9JN_dZOkz5-70" value="" style="shape=singleArrow;direction=south;whiteSpace=wrap;html=1;" parent="Hz02QzPRz-9JN_dZOkz5-31" vertex="1">
          <mxGeometry x="300" y="250" width="20" height="30" as="geometry" />
        </mxCell>
        <mxCell id="Hz02QzPRz-9JN_dZOkz5-72" value="" style="shape=singleArrow;whiteSpace=wrap;html=1;" parent="Hz02QzPRz-9JN_dZOkz5-31" vertex="1">
          <mxGeometry x="220" y="210" width="30" height="20" as="geometry" />
        </mxCell>
        <mxCell id="Hz02QzPRz-9JN_dZOkz5-73" value="" style="edgeStyle=elbowEdgeStyle;elbow=vertical;sourcePerimeterSpacing=0;targetPerimeterSpacing=0;startArrow=none;endArrow=none;rounded=1;curved=0;labelBackgroundColor=none;fontColor=default;comic=0;enumerate=0;backgroundOutline=0;metaEdit=0;fixDash=0;" parent="Hz02QzPRz-9JN_dZOkz5-31" source="Hz02QzPRz-9JN_dZOkz5-36" target="Hz02QzPRz-9JN_dZOkz5-72" edge="1">
          <mxGeometry relative="1" as="geometry">
            <mxPoint x="349" y="220" as="sourcePoint" />
            <mxPoint x="540" y="220" as="targetPoint" />
          </mxGeometry>
        </mxCell>
        <mxCell id="Hz02QzPRz-9JN_dZOkz5-74" value="" style="shape=singleArrow;whiteSpace=wrap;html=1;" parent="Hz02QzPRz-9JN_dZOkz5-31" vertex="1">
          <mxGeometry x="360" y="110" width="39" height="20" as="geometry" />
        </mxCell>
        <mxCell id="Hz02QzPRz-9JN_dZOkz5-75" value="" style="edgeStyle=elbowEdgeStyle;rounded=0;orthogonalLoop=1;jettySize=auto;html=1;startArrow=none;endArrow=none;" parent="Hz02QzPRz-9JN_dZOkz5-31" source="Hz02QzPRz-9JN_dZOkz5-62" target="Hz02QzPRz-9JN_dZOkz5-74" edge="1">
          <mxGeometry relative="1" as="geometry">
            <mxPoint x="489" y="120" as="sourcePoint" />
            <mxPoint x="600" y="190" as="targetPoint" />
            <Array as="points" />
          </mxGeometry>
        </mxCell>
        <mxCell id="Hz02QzPRz-9JN_dZOkz5-76" value="" style="shape=singleArrow;whiteSpace=wrap;html=1;" parent="Hz02QzPRz-9JN_dZOkz5-31" vertex="1">
          <mxGeometry x="360" y="310" width="30" height="20" as="geometry" />
        </mxCell>
        <mxCell id="Hz02QzPRz-9JN_dZOkz5-77" value="" style="edgeStyle=elbowEdgeStyle;rounded=0;orthogonalLoop=1;jettySize=auto;html=1;startArrow=none;endArrow=none;exitX=1;exitY=0.5;exitDx=0;exitDy=0;entryX=0;entryY=0.5;entryDx=0;entryDy=0;" parent="Hz02QzPRz-9JN_dZOkz5-31" source="Hz02QzPRz-9JN_dZOkz5-66" target="Hz02QzPRz-9JN_dZOkz5-76" edge="1">
          <mxGeometry relative="1" as="geometry">
            <mxPoint x="489" y="320" as="sourcePoint" />
            <mxPoint x="540" y="320" as="targetPoint" />
          </mxGeometry>
        </mxCell>
        <mxCell id="Hz02QzPRz-9JN_dZOkz5-78" value="" style="shape=singleArrow;direction=south;whiteSpace=wrap;html=1;" parent="Hz02QzPRz-9JN_dZOkz5-31" vertex="1">
          <mxGeometry x="451" y="255" width="20" height="20" as="geometry" />
        </mxCell>
        <mxCell id="Hz02QzPRz-9JN_dZOkz5-79" value="" style="edgeStyle=elbowEdgeStyle;elbow=vertical;sourcePerimeterSpacing=0;targetPerimeterSpacing=0;startArrow=none;endArrow=none;rounded=1;curved=0;labelBackgroundColor=none;fontColor=default;comic=0;enumerate=0;backgroundOutline=0;metaEdit=0;fixDash=0;" parent="Hz02QzPRz-9JN_dZOkz5-31" source="Hz02QzPRz-9JN_dZOkz5-40" target="Hz02QzPRz-9JN_dZOkz5-78" edge="1">
          <mxGeometry relative="1" as="geometry">
            <mxPoint x="590" y="250" as="sourcePoint" />
            <mxPoint x="590" y="290" as="targetPoint" />
          </mxGeometry>
        </mxCell>
        <mxCell id="Hz02QzPRz-9JN_dZOkz5-80" value="" style="shape=singleArrow;direction=south;whiteSpace=wrap;html=1;" parent="Hz02QzPRz-9JN_dZOkz5-31" vertex="1">
          <mxGeometry x="451" y="350" width="19" height="25" as="geometry" />
        </mxCell>
        <mxCell id="Hz02QzPRz-9JN_dZOkz5-81" value="" style="shape=singleArrow;direction=west;whiteSpace=wrap;html=1;" parent="Hz02QzPRz-9JN_dZOkz5-31" vertex="1">
          <mxGeometry x="381" y="410" width="30" height="20" as="geometry" />
        </mxCell>
        <mxCell id="Hz02QzPRz-9JN_dZOkz5-83" value="" style="edgeStyle=elbowEdgeStyle;elbow=vertical;sourcePerimeterSpacing=0;targetPerimeterSpacing=0;startArrow=none;endArrow=none;rounded=1;curved=0;labelBackgroundColor=none;fontColor=default;comic=0;enumerate=0;backgroundOutline=0;metaEdit=0;fixDash=0;" parent="Hz02QzPRz-9JN_dZOkz5-31" source="Hz02QzPRz-9JN_dZOkz5-44" target="Hz02QzPRz-9JN_dZOkz5-81" edge="1">
          <mxGeometry relative="1" as="geometry">
            <mxPoint x="540" y="420" as="sourcePoint" />
            <mxPoint x="489" y="420" as="targetPoint" />
          </mxGeometry>
        </mxCell>
        <mxCell id="Hz02QzPRz-9JN_dZOkz5-85" value="" style="edgeStyle=elbowEdgeStyle;elbow=vertical;sourcePerimeterSpacing=0;targetPerimeterSpacing=0;startArrow=none;endArrow=none;rounded=1;curved=0;labelBackgroundColor=none;fontColor=default;comic=0;enumerate=0;backgroundOutline=0;metaEdit=0;fixDash=0;" parent="Hz02QzPRz-9JN_dZOkz5-31" source="Hz02QzPRz-9JN_dZOkz5-46" target="Hz02QzPRz-9JN_dZOkz5-84" edge="1">
          <mxGeometry relative="1" as="geometry">
            <mxPoint x="389" y="420" as="sourcePoint" />
            <mxPoint x="320" y="420" as="targetPoint" />
          </mxGeometry>
        </mxCell>
        <mxCell id="Hz02QzPRz-9JN_dZOkz5-84" value="" style="shape=singleArrow;direction=west;whiteSpace=wrap;html=1;" parent="Hz02QzPRz-9JN_dZOkz5-31" vertex="1">
          <mxGeometry x="231" y="410" width="29" height="20" as="geometry" />
        </mxCell>
        <mxCell id="Hz02QzPRz-9JN_dZOkz5-87" value="" style="edgeStyle=elbowEdgeStyle;elbow=vertical;sourcePerimeterSpacing=0;targetPerimeterSpacing=0;startArrow=none;endArrow=none;rounded=1;curved=0;labelBackgroundColor=none;fontColor=default;comic=0;enumerate=0;backgroundOutline=0;metaEdit=0;fixDash=0;" parent="Hz02QzPRz-9JN_dZOkz5-31" source="Hz02QzPRz-9JN_dZOkz5-34" target="Hz02QzPRz-9JN_dZOkz5-86" edge="1">
          <mxGeometry relative="1" as="geometry">
            <mxPoint x="249" y="80" as="sourcePoint" />
            <mxPoint x="189" y="110" as="targetPoint" />
            <Array as="points" />
          </mxGeometry>
        </mxCell>
        <mxCell id="Hz02QzPRz-9JN_dZOkz5-86" value="" style="shape=singleArrow;direction=west;whiteSpace=wrap;html=1;" parent="Hz02QzPRz-9JN_dZOkz5-31" vertex="1">
          <mxGeometry x="101" y="75" width="19" height="15" as="geometry" />
        </mxCell>
        <mxCell id="Hz02QzPRz-9JN_dZOkz5-89" value="" style="edgeStyle=elbowEdgeStyle;elbow=vertical;sourcePerimeterSpacing=0;targetPerimeterSpacing=0;startArrow=none;endArrow=none;rounded=1;curved=0;labelBackgroundColor=none;fontColor=default;comic=0;enumerate=0;backgroundOutline=0;metaEdit=0;fixDash=0;" parent="Hz02QzPRz-9JN_dZOkz5-31" source="Hz02QzPRz-9JN_dZOkz5-34" target="Hz02QzPRz-9JN_dZOkz5-88" edge="1">
          <mxGeometry relative="1" as="geometry">
            <mxPoint x="309" y="90" as="sourcePoint" />
            <mxPoint x="309" y="190" as="targetPoint" />
            <Array as="points" />
          </mxGeometry>
        </mxCell>
        <mxCell id="Hz02QzPRz-9JN_dZOkz5-88" value="" style="shape=singleArrow;direction=south;whiteSpace=wrap;html=1;" parent="Hz02QzPRz-9JN_dZOkz5-31" vertex="1">
          <mxGeometry x="170.5" y="90" width="19" height="25" as="geometry" />
        </mxCell>
        <mxCell id="Hz02QzPRz-9JN_dZOkz5-94" value="" style="edgeStyle=elbowEdgeStyle;rounded=1;orthogonalLoop=1;jettySize=auto;html=1;startArrow=none;endArrow=none;exitX=1;exitY=0.5;exitDx=0;exitDy=0;entryX=0.5;entryY=1;entryDx=0;entryDy=0;curved=0;comic=0;enumerate=0;backgroundOutline=0;metaEdit=0;fixDash=0;" parent="Hz02QzPRz-9JN_dZOkz5-31" source="Hz02QzPRz-9JN_dZOkz5-35" target="Hz02QzPRz-9JN_dZOkz5-90" edge="1">
          <mxGeometry relative="1" as="geometry">
            <mxPoint x="219" y="140" as="sourcePoint" />
            <mxPoint x="309" y="90" as="targetPoint" />
          </mxGeometry>
        </mxCell>
        <mxCell id="Hz02QzPRz-9JN_dZOkz5-90" value="" style="shape=singleArrow;whiteSpace=wrap;html=1;" parent="Hz02QzPRz-9JN_dZOkz5-31" vertex="1">
          <mxGeometry x="90" y="130" width="29.5" height="20" as="geometry" />
        </mxCell>
        <mxCell id="HXSNLi9rAcWrpM63ehxe-20" value="DIAGRAMA DE CLASSE DE USO" style="swimlane;startSize=20;horizontal=1;containerType=tree;newEdgeStyle={&quot;edgeStyle&quot;:&quot;elbowEdgeStyle&quot;,&quot;startArrow&quot;:&quot;none&quot;,&quot;endArrow&quot;:&quot;none&quot;};labelBackgroundColor=none;rounded=1;comic=0;enumerate=0;backgroundOutline=0;metaEdit=0;fixDash=0;" vertex="1" parent="1">
          <mxGeometry x="130" y="550" width="591" height="520" as="geometry" />
        </mxCell>
        <mxCell id="HXSNLi9rAcWrpM63ehxe-66" value="USUÁRIO" style="whiteSpace=wrap;html=1;" vertex="1" parent="HXSNLi9rAcWrpM63ehxe-20">
          <mxGeometry x="36" y="40" width="120" height="60" as="geometry" />
        </mxCell>
        <mxCell id="HXSNLi9rAcWrpM63ehxe-67" value="" style="edgeStyle=orthogonalEdgeStyle;rounded=0;orthogonalLoop=1;jettySize=auto;html=1;" edge="1" source="HXSNLi9rAcWrpM63ehxe-66" target="HXSNLi9rAcWrpM63ehxe-68" parent="HXSNLi9rAcWrpM63ehxe-20">
          <mxGeometry relative="1" as="geometry" />
        </mxCell>
        <mxCell id="HXSNLi9rAcWrpM63ehxe-68" value="PODE FAZER CADASTRO DE CONTA, COM GOOGLE, INSTAGRAM, FACEBOOK E X" style="whiteSpace=wrap;html=1;" vertex="1" parent="HXSNLi9rAcWrpM63ehxe-20">
          <mxGeometry x="11" y="150" width="170" height="60" as="geometry" />
        </mxCell>
        <mxCell id="HXSNLi9rAcWrpM63ehxe-77" value="" style="edgeStyle=orthogonalEdgeStyle;rounded=0;orthogonalLoop=1;jettySize=auto;html=1;" edge="1" target="HXSNLi9rAcWrpM63ehxe-86" source="HXSNLi9rAcWrpM63ehxe-68" parent="HXSNLi9rAcWrpM63ehxe-20">
          <mxGeometry relative="1" as="geometry">
            <mxPoint x="409" y="660" as="sourcePoint" />
          </mxGeometry>
        </mxCell>
        <mxCell id="HXSNLi9rAcWrpM63ehxe-86" value="PODE FAZER LOGIN COM&amp;nbsp; GOOGLE, INSTAGRAM, FACEBOOK E X" style="whiteSpace=wrap;html=1;" vertex="1" parent="HXSNLi9rAcWrpM63ehxe-20">
          <mxGeometry x="211" y="150" width="170" height="60" as="geometry" />
        </mxCell>
        <mxCell id="HXSNLi9rAcWrpM63ehxe-91" value="" style="edgeStyle=orthogonalEdgeStyle;rounded=0;orthogonalLoop=1;jettySize=auto;html=1;" edge="1" target="HXSNLi9rAcWrpM63ehxe-92" source="HXSNLi9rAcWrpM63ehxe-86" parent="HXSNLi9rAcWrpM63ehxe-20">
          <mxGeometry relative="1" as="geometry">
            <mxPoint x="510" y="740" as="sourcePoint" />
          </mxGeometry>
        </mxCell>
        <mxCell id="HXSNLi9rAcWrpM63ehxe-92" value="PODE BUSCAR TAREFA" style="whiteSpace=wrap;html=1;" vertex="1" parent="HXSNLi9rAcWrpM63ehxe-20">
          <mxGeometry x="245.75" y="250" width="99.5" height="60" as="geometry" />
        </mxCell>
        <mxCell id="HXSNLi9rAcWrpM63ehxe-94" value="" style="edgeStyle=orthogonalEdgeStyle;rounded=0;orthogonalLoop=1;jettySize=auto;html=1;" edge="1" target="HXSNLi9rAcWrpM63ehxe-95" source="HXSNLi9rAcWrpM63ehxe-86" parent="HXSNLi9rAcWrpM63ehxe-20">
          <mxGeometry relative="1" as="geometry">
            <mxPoint x="425" y="760" as="sourcePoint" />
          </mxGeometry>
        </mxCell>
        <mxCell id="HXSNLi9rAcWrpM63ehxe-95" value="PODE MARCAR TAREFA" style="whiteSpace=wrap;html=1;" vertex="1" parent="HXSNLi9rAcWrpM63ehxe-20">
          <mxGeometry x="355.25" y="250" width="99.5" height="60" as="geometry" />
        </mxCell>
        <mxCell id="HXSNLi9rAcWrpM63ehxe-96" value="" style="edgeStyle=orthogonalEdgeStyle;rounded=0;orthogonalLoop=1;jettySize=auto;html=1;" edge="1" target="HXSNLi9rAcWrpM63ehxe-97" source="HXSNLi9rAcWrpM63ehxe-86" parent="HXSNLi9rAcWrpM63ehxe-20">
          <mxGeometry relative="1" as="geometry">
            <mxPoint x="425" y="760" as="sourcePoint" />
          </mxGeometry>
        </mxCell>
        <mxCell id="HXSNLi9rAcWrpM63ehxe-97" value="PODE ALTERAR TAREFA" style="whiteSpace=wrap;html=1;" vertex="1" parent="HXSNLi9rAcWrpM63ehxe-20">
          <mxGeometry x="136.25" y="250" width="99.5" height="60" as="geometry" />
        </mxCell>
        <mxCell id="HXSNLi9rAcWrpM63ehxe-98" value="" style="edgeStyle=orthogonalEdgeStyle;rounded=0;orthogonalLoop=1;jettySize=auto;html=1;" edge="1" target="HXSNLi9rAcWrpM63ehxe-99" source="HXSNLi9rAcWrpM63ehxe-95" parent="HXSNLi9rAcWrpM63ehxe-20">
          <mxGeometry relative="1" as="geometry">
            <mxPoint x="425" y="760" as="sourcePoint" />
          </mxGeometry>
        </mxCell>
        <mxCell id="HXSNLi9rAcWrpM63ehxe-99" value="PODE ADICIONAR TAREFA" style="whiteSpace=wrap;html=1;" vertex="1" parent="HXSNLi9rAcWrpM63ehxe-20">
          <mxGeometry x="355.25" y="330" width="99.5" height="60" as="geometry" />
        </mxCell>
        <mxCell id="HXSNLi9rAcWrpM63ehxe-100" value="" style="edgeStyle=orthogonalEdgeStyle;rounded=0;orthogonalLoop=1;jettySize=auto;html=1;" edge="1" target="HXSNLi9rAcWrpM63ehxe-101" source="HXSNLi9rAcWrpM63ehxe-97" parent="HXSNLi9rAcWrpM63ehxe-20">
          <mxGeometry relative="1" as="geometry">
            <mxPoint x="425" y="760" as="sourcePoint" />
          </mxGeometry>
        </mxCell>
        <mxCell id="HXSNLi9rAcWrpM63ehxe-105" style="edgeStyle=orthogonalEdgeStyle;rounded=0;orthogonalLoop=1;jettySize=auto;html=1;exitX=0.5;exitY=1;exitDx=0;exitDy=0;entryX=0;entryY=0.75;entryDx=0;entryDy=0;" edge="1" parent="HXSNLi9rAcWrpM63ehxe-20" source="HXSNLi9rAcWrpM63ehxe-101" target="HXSNLi9rAcWrpM63ehxe-107">
          <mxGeometry relative="1" as="geometry">
            <mxPoint x="186" y="460" as="targetPoint" />
          </mxGeometry>
        </mxCell>
        <mxCell id="HXSNLi9rAcWrpM63ehxe-101" value="PODE EXCLUIR TAREFA" style="whiteSpace=wrap;html=1;" vertex="1" parent="HXSNLi9rAcWrpM63ehxe-20">
          <mxGeometry x="136.25" y="330" width="99.5" height="60" as="geometry" />
        </mxCell>
        <mxCell id="HXSNLi9rAcWrpM63ehxe-107" value="SAIR" style="rounded=1;whiteSpace=wrap;html=1;" vertex="1" parent="HXSNLi9rAcWrpM63ehxe-20">
          <mxGeometry x="235.25" y="410" width="120" height="60" as="geometry" />
        </mxCell>
        <mxCell id="HXSNLi9rAcWrpM63ehxe-106" style="edgeStyle=orthogonalEdgeStyle;rounded=0;orthogonalLoop=1;jettySize=auto;html=1;exitX=0.5;exitY=1;exitDx=0;exitDy=0;" edge="1" parent="HXSNLi9rAcWrpM63ehxe-20" source="HXSNLi9rAcWrpM63ehxe-99" target="HXSNLi9rAcWrpM63ehxe-107">
          <mxGeometry relative="1" as="geometry">
            <mxPoint x="405" y="460" as="targetPoint" />
            <Array as="points">
              <mxPoint x="405" y="450" />
            </Array>
          </mxGeometry>
        </mxCell>
      </root>
    </mxGraphModel>
  </diagram>
</mxfile>
